<svg width="1200" height="689" viewBox="0 0 1200 689" fill="none" xmlns="http://www.w3.org/2000/svg">
<path d="M49.9927 6.63671C45.6723 10.3746 37.2079 17.4689 31.3005 22.5035C25.3931 27.5382 15.8707 35.5479 10.2278 40.2012L0 48.8211V82.9195V117.094L9.2579 125.257L18.5158 133.419V212.829V292.163L22.4835 295.672L26.4511 299.105V343.578V388.051L24.2469 388.89C21.1609 390.111 21.1609 394.459 24.2469 396.518C26.363 397.968 26.4511 398.425 26.4511 405.291C26.4511 412.156 26.363 412.614 24.2469 413.758C20.8082 415.742 21.7781 421.844 25.4813 421.844C26.0985 421.844 26.4511 424.438 26.4511 429.091C26.4511 433.058 26.0985 436.338 25.6576 436.338C23.9824 436.338 22.0426 438.779 22.0426 440.915C22.0426 442.364 22.8361 443.585 24.2469 444.576C26.363 446.026 26.4511 446.484 26.4511 453.654C26.4511 460.672 26.363 461.206 24.4232 461.893C20.8964 463.266 21.7781 469.902 25.4813 469.902C26.1866 469.902 26.4511 480.124 26.4511 503.467C26.4511 521.927 26.1866 537.031 25.8339 537.031C25.3931 537.031 23.806 538.023 22.3071 539.167L19.3975 541.303V580.741V620.18L29.978 629.257L40.5584 638.335V652.829C40.5584 664.118 40.8229 667.627 41.7928 668.39C44.1734 670.374 48.4938 673.578 48.8464 673.578C49.1991 673.578 54.9302 677.849 58.8097 680.977L60.9258 682.731H114.622C167.436 682.731 168.406 682.731 169.464 681.206C170.61 679.68 171.58 679.68 543.395 679.68H916.179L920.676 683.876L925.173 688.071H986.275H1047.47V685.173C1047.47 683.571 1047.91 681.892 1048.52 681.358C1049.23 680.748 1053.64 680.443 1062.54 680.443H1075.59L1082.91 673.883C1095.52 662.593 1097.99 660.381 1105.48 653.515C1110.68 648.786 1113.24 646.879 1114.3 647.184C1115.09 647.413 1118.18 646.573 1121 645.353C1126.11 643.141 1126.47 643.064 1139.78 643.064H1153.45L1162.97 634.978C1168.17 630.554 1173.37 626.435 1174.34 625.824C1176.02 624.757 1176.19 623.917 1176.19 616.747V608.813L1184.75 601.49C1189.51 597.447 1194.89 592.947 1196.65 591.497L1200 588.827V561.594V534.361L1190.74 526.352L1181.48 518.342V479.133V439.923L1178.57 437.558C1176.99 436.262 1174.17 434.202 1172.4 433.058L1169.14 430.922V411.546V392.17L1161.12 385.076L1153.18 377.982L1153.01 341.747C1152.92 318.328 1152.48 305.437 1151.95 305.284C1151.33 305.208 1150.98 317.184 1150.8 339.84C1150.71 358.911 1150.27 374.549 1149.92 374.549C1149.57 374.549 1146.75 372.413 1143.75 369.743L1138.28 364.937V246.623V128.308L1141.81 125.638L1145.33 122.968V116.942C1145.33 111.144 1145.42 110.763 1147.98 108.856L1150.62 106.796V137.691C1150.62 164.618 1150.8 168.585 1151.95 168.585C1153.09 168.585 1153.27 164.542 1153.27 136.699V104.736L1155.56 102.906L1157.94 101.075L1157.41 77.8849L1156.88 54.6949L1148.24 46.9903C1143.48 42.7185 1134.49 34.7088 1128.32 29.1401L1117.03 19.0708H1064.48H1012.02L999.765 29.7504L987.597 40.43H809.934H632.27L624.688 47.0666C620.544 50.7282 617.193 53.7795 617.193 53.9321C617.193 54.0084 615.518 55.4577 613.49 57.2122L609.787 60.2635H487.847H365.907L361.675 56.8308C359.383 55 350.037 47.0666 340.867 39.2858L324.115 25.1734H299.515H274.915L260.367 12.5868L245.819 0.000103861H151.918H57.928L49.9927 6.63671ZM101.22 54.9237L101.484 62.1706L110.83 69.9515C116.032 74.2996 119.824 77.8086 119.383 77.8086C118.854 77.8086 116.297 79.4868 113.652 81.6227C111.007 83.6824 108.45 85.3606 107.832 85.4369C107.215 85.4369 103.953 82.9958 100.602 80.0971L94.3424 74.7573H77.6782C68.5084 74.7573 60.3086 74.5284 59.5151 74.2996C58.3688 73.9182 61.7193 70.7143 73.7105 60.4924L89.3167 47.2192L95.1359 47.448L100.955 47.6769L101.22 54.9237ZM232.417 59.8821L246.525 72.4688H430.536H614.46L626.01 62.552L637.472 52.6353H722.116H806.76V55.9917C806.76 58.8142 807.201 59.6533 809.405 61.2552L812.05 63.2386V315.277C812.05 538.633 811.874 567.468 810.727 567.85C809.052 568.384 809.052 571.13 810.639 572.579C811.345 573.189 812.932 573.647 814.166 573.647C815.841 573.647 818.839 575.783 826.157 582.038C831.447 586.615 835.944 590.734 835.944 591.192C836.209 592.641 836.385 593.099 837.443 594.777C838.677 596.761 841.852 597.142 842.557 595.388C842.998 594.396 848.2 594.243 881.352 594.243C918.472 594.243 919.618 594.32 919.618 595.693C919.618 597.829 924.555 601.109 927.73 601.109C934.342 601.109 937.957 596.684 936.811 589.895L936.282 586.997L954.622 571.206C969.17 558.696 973.49 555.415 975.606 555.187C977.37 555.034 978.516 554.347 979.133 553.203L980.015 551.525H1015.55C1048.52 551.525 1051.08 551.601 1051.61 552.822C1051.96 553.585 1052.76 554.576 1053.37 554.958C1054.25 555.568 1054.52 557.17 1054.34 560.679L1054.08 565.637L1039.79 565.866L1025.42 566.019V575.173V584.327H1035.39C1050.02 584.327 1059.63 587.531 1069.16 595.616C1075.68 601.109 1076.83 602.406 1080 607.822C1084.5 615.45 1085.64 620.103 1085.2 629.486L1084.76 637.801L1087.67 638.869C1089.17 639.403 1093.05 640.623 1096.31 641.539C1099.49 642.53 1102.13 643.675 1102.13 644.132C1102.13 644.59 1094.81 651.456 1085.82 659.313L1069.6 673.654L1058.75 673.425C1047.91 673.196 1047.91 673.196 1047.64 671.289L1047.38 669.382H1034.68C1025.69 669.382 1021.63 669.077 1020.84 668.39C1020.31 667.933 1019.16 667.475 1018.37 667.475C1017.58 667.475 1015.55 666.865 1013.87 666.102C1004.35 661.906 994.915 653.668 990.683 645.734C989.713 644.056 988.655 642.073 988.215 641.31C987.333 639.784 985.569 629.944 985.569 627.045C985.658 623.383 987.421 614.23 988.215 612.856C988.744 612.017 989.978 609.881 990.948 607.974L992.799 604.542L978.075 604.313C969.963 604.236 962.821 604.313 962.204 604.465C961.411 604.77 961.058 606.678 961.058 611.026V617.128H951.359H941.661V622.468V627.808H898.016C874.034 627.808 854.372 627.579 854.372 627.198C854.372 626.892 851.638 624.223 848.376 621.171C845.114 618.196 840 613.314 836.914 610.339L831.359 604.923H697.34H563.409L561.029 602.635C556.796 598.515 550.096 600.041 549.919 605.228C549.743 610.492 555.562 612.704 560.059 609.119L562.439 607.211H696.282C832.153 607.288 833.211 607.288 833.211 609.805C833.211 610.034 835.856 612.628 839.206 615.526C842.469 618.349 847.23 622.849 849.875 625.443L854.636 630.096L897.928 630.249L941.22 630.478L941.484 633.3L941.749 636.199H889.904C861.425 636.199 837.708 635.894 837.179 635.589C836.738 635.284 834.71 633.529 832.858 631.622C830.918 629.715 826.422 625.367 822.719 621.934L816.106 615.603H666.304H516.591L513.769 618.196C512.182 619.646 508.391 623.307 505.217 626.358C502.043 629.486 498.604 632.766 497.546 633.682L495.606 635.436H391.565H287.524L284.438 638.335C282.763 639.861 280.647 641.92 279.677 642.912C278.09 644.438 277.208 644.59 269.625 644.59C264.335 644.59 260.985 644.285 260.279 643.675C259.662 643.141 259.221 643.064 259.221 643.37C259.221 645.124 262.748 646.039 269.184 646.116H275.974L273.593 648.404L271.301 650.693H202.351H133.49L116.65 636.046C107.392 627.96 88.2586 611.254 74.1514 599.049L48.4938 576.698V329.313V81.9279L51.0507 79.4868L53.6958 77.0458H73.7987H93.9015L99.8971 82.0042C105.805 87.0388 106.863 88.6408 104.57 89.785C103.159 90.5478 97.0757 99.1678 95.0478 103.363C92.7553 108.093 91.8736 111.144 90.4629 118.772C88.5231 129.3 90.8156 140.971 96.8112 151.727C98.1337 154.091 99.4563 156.075 99.8971 156.227C100.25 156.38 100.514 156.914 100.514 157.448C100.514 160.118 118.413 175.451 121.499 175.451C122.028 175.451 122.557 175.679 122.733 176.061C122.91 176.366 125.555 177.663 128.729 178.96C133.843 181.019 136.135 181.706 144.6 183.842C146.804 184.376 146.804 184.376 147.068 194.445L147.333 204.514L139.486 211.151C135.165 214.813 129.346 219.695 126.436 221.983C123.615 224.272 115.944 230.527 109.508 235.867C102.983 241.206 97.6047 245.631 97.5165 245.631C97.3402 245.631 92.6672 249.521 87.0242 254.251L76.7083 262.871V401.324C76.7083 499.805 76.4438 540.006 75.7384 540.617C75.2094 541.074 74.9449 542.219 75.1212 543.21C75.2976 544.736 75.9148 545.041 78.4717 545.041C81.1168 545.041 81.5577 544.736 81.8222 543.058C81.9985 541.99 81.4695 540.693 80.7641 540.083C79.5298 539.243 79.3534 524.826 79.3534 401.019V262.871L87.6414 256.005C96.4585 248.606 117.708 231.213 122.116 227.781C123.615 226.636 130.228 221.144 136.841 215.652L149.008 205.582V195.055C149.008 187.274 149.273 184.605 150.154 184.528C150.683 184.528 153.417 184.528 156.062 184.605C162.145 184.681 172.814 183.384 177.928 181.858C182.248 180.638 191.506 176.9 192.212 176.137C192.476 175.908 193.534 175.451 194.68 175.145C195.738 174.84 196.62 174.23 196.62 173.849C196.62 173.467 197.061 173.162 197.502 173.162C198.736 173.162 211.609 162.101 211.609 161.109C211.609 160.652 211.962 160.194 212.314 160.041C213.108 159.736 217.781 153.1 219.456 149.896C230.742 127.698 224.747 100.617 204.908 84.4452C199.882 80.3259 199.265 79.8682 196.179 78.1137C194.68 77.3509 193.358 76.5118 193.093 76.2829C191.947 75.2913 181.455 70.9431 180.044 70.9431C179.162 70.9431 178.104 70.638 177.663 70.2566C176.694 69.4938 167.259 67.9681 160.029 67.3578C152.359 66.6713 138.075 69.4175 128.024 73.3842C125.026 74.6047 122.028 75.5201 121.323 75.3675C120.617 75.215 116.473 72.1637 112.065 68.5021L104.041 61.8655V55.0763C104.041 51.3385 104.306 48.0583 104.658 47.8294C104.923 47.5243 130.669 47.2955 161.705 47.2955L218.222 47.2192L232.417 59.8821ZM969.875 61.7892L980.456 70.9431H1025.07H1069.6L1090.76 89.1747L1111.83 107.483V236.477V365.471L1109.18 367.455C1104.34 370.964 1106.72 376.837 1112.98 376.837C1118.62 376.837 1121 370.811 1116.68 367.378L1114.47 365.624V236.324V107.025L1097.19 92.2261C1087.76 84.0638 1077.71 75.4438 1074.97 73.0028L1069.95 68.6547L1024.98 68.5784L980.015 68.5021L972.52 61.2552C968.376 57.2885 964.938 53.7032 964.761 53.3218C964.585 52.9404 987.95 52.6353 1022.69 52.6353H1080.97L1103.28 71.9348L1125.67 91.2344L1126.2 140.818C1126.55 168.051 1127.08 230.985 1127.44 280.721L1127.96 371.116L1136.69 378.363L1145.33 385.61V426.879C1145.33 465.097 1145.25 468.224 1143.84 469.674C1142.95 470.513 1141.19 472.343 1139.87 473.793L1137.4 476.31V491.033C1137.4 503.619 1137.58 505.755 1138.72 505.755C1139.87 505.755 1140.04 503.619 1140.04 490.956V476.158L1143.39 472.42L1146.66 468.758L1147.1 428.099L1147.54 387.517L1152.65 391.407L1157.68 395.374V472.267V549.237H1104.78C1069.33 549.237 1051.87 549.465 1051.87 549.999C1051.87 550.915 981.161 550.61 975.871 549.618C972.608 549.084 972.52 549.084 972.52 551.449C972.52 553.508 970.14 555.873 953.564 570.138L934.695 586.539L931.521 585.776C925.878 584.403 920.059 586.691 919.442 590.506L919.177 592.336L881.44 592.565C848.464 592.718 843.703 592.565 843.262 591.574C842.91 590.963 841.675 590.429 840.529 590.429C837.09 590.429 816.458 572.579 816.458 569.604C816.458 568.46 816.106 567.544 815.577 567.544C814.96 567.544 814.695 482.87 814.695 315.048C814.695 175.985 815.048 62.552 815.489 62.552C815.841 62.552 817.252 61.7129 818.575 60.645C820.338 59.2719 820.867 58.0513 820.867 55.6866V52.6353H890.081H959.295L969.875 61.7892ZM172.109 70.638C175.195 71.2483 178.457 72.0874 179.427 72.3925C180.397 72.7739 182.954 73.6893 185.158 74.4522C187.362 75.215 189.302 76.0541 189.566 76.2829C189.831 76.5118 192.212 77.9612 194.945 79.5631C203.674 84.5978 212.579 93.7517 217.076 102.219C222.013 111.602 223.248 116.942 222.807 127.545C222.454 136.318 221.132 143.107 219.544 144.48C219.015 144.937 218.663 145.777 218.663 146.387C218.663 147.913 213.813 155.846 210.816 159.431C207.906 162.788 198.56 170.874 197.59 170.874C197.149 170.874 196.62 171.103 196.444 171.484C196.356 171.789 194.24 173.086 191.771 174.383C187.803 176.519 186.04 177.281 178.986 179.951C174.401 181.706 166.73 182.621 157.384 182.621C147.597 182.545 136.664 181.096 136.664 179.951C136.664 179.57 135.871 179.265 134.813 179.265C132.432 179.265 121.323 174.001 116.473 170.492C112.329 167.593 105.805 161.72 105.805 161.033C105.805 160.652 105.452 160.194 105.099 160.041C104.747 159.889 103.248 158.058 101.749 155.999C99.3681 152.489 97.9574 150.048 95.3123 144.937C91.9618 138.377 90.8156 123.807 93.108 114.653C93.9015 111.144 94.9596 108.093 95.4004 107.864C95.7531 107.635 96.1058 106.872 96.1058 106.186C96.1058 104.508 100.602 96.9556 103.777 93.2177C111.095 84.5978 123.439 76.3592 134.46 72.7739C144.688 69.4175 161.793 68.4258 172.109 70.638ZM37.9133 419.174V528.335L35.18 530.395C33.6811 531.539 32.2704 532.454 32.0059 532.454C31.8295 532.454 30.9478 532.988 30.2425 533.675C29.0963 534.667 28.7436 534.667 28.1264 533.827C27.6855 533.293 27.3328 519.029 27.3328 502.094V471.428L29.5371 469.75C32.5349 467.538 32.5349 461.511 29.5371 461.511C27.7737 461.511 27.3328 459.68 27.3328 452.815C27.3328 447.094 27.5092 446.407 29.5371 444.882C30.9478 443.814 31.7414 442.441 31.7414 440.915C31.7414 439.389 30.9478 438.016 29.5371 436.948C27.5092 435.423 27.3328 434.736 27.3328 429.32C27.3328 423.904 27.5974 423.141 29.5371 421.386C31.036 420.09 31.7414 418.64 31.7414 416.962C31.7414 415.055 31.1242 414.063 29.5371 413.148C27.421 412.004 27.3328 411.47 27.3328 405.215C27.3328 399.036 27.5092 398.349 29.5371 396.671C32.5349 394.23 32.5349 390.416 29.5371 388.737L27.3328 387.517V345.638C27.3328 322.6 27.5974 303.148 27.95 302.385C28.3909 301.317 29.3608 301.928 33.2403 305.513L37.9133 310.014V419.174ZM1108.66 645.582C1110.15 646.497 1109.63 647.184 1102.48 653.515C1098.16 657.329 1089.96 664.652 1084.23 669.687L1073.83 678.994L1060.87 678.765C1049.32 678.536 1047.91 678.383 1047.64 677.163C1047.38 676.019 1048.35 675.866 1059.02 675.866H1070.65L1073.65 672.967C1085.29 662.211 1105.39 644.59 1106.19 644.59C1106.63 644.59 1107.77 645.048 1108.66 645.582ZM790.007 659.694C790.007 659.999 791.154 660.915 792.652 661.601C794.063 662.364 795.738 663.356 796.356 663.89C796.973 664.424 798.913 665.797 800.676 666.941L803.85 669.001H854.107H904.364L907.098 671.67C908.685 673.12 909.919 674.493 909.919 674.722C909.919 675.256 178.545 675.179 177.928 674.646C177.575 674.417 181.19 670.831 185.863 666.712L194.416 659.236L492.256 659.16C655.988 659.16 790.007 659.389 790.007 659.694Z" fill="#CC1010" fill-opacity="0.9"/>
<path d="M250.581 597.447L250.845 610.644H366.348H481.852L482.116 597.447L482.292 584.327H366.348H250.404L250.581 597.447ZM351.095 596.913L350.742 607.212H355.68H360.617V596.913C360.617 590.582 360.97 586.615 361.499 586.615C362.028 586.615 362.381 590.582 362.381 596.913V607.212H367.23H372.168L371.991 597.142C371.903 590.353 372.168 586.997 372.873 586.768C373.578 586.539 373.843 589.59 373.843 596.837V607.212H377.81H381.778V596.837C381.778 589.59 382.043 586.539 382.748 586.768C383.453 586.997 383.718 590.353 383.63 597.142L383.453 607.212H388.391H393.328L393.152 597.219C393.152 591.802 393.328 587.073 393.593 586.844C393.858 586.539 394.122 591.04 394.122 596.761V607.212H398.971H403.821V596.913C403.821 590.582 404.173 586.615 404.702 586.615C405.231 586.615 405.584 590.582 405.584 596.913V607.212H409.552H413.52V596.913C413.52 587.149 413.608 586.615 415.283 586.615C416.958 586.615 417.046 587.149 417.046 596.913V607.212H421.014H424.982V596.913C424.982 588.293 425.158 586.615 426.304 586.615C427.45 586.615 427.627 588.293 427.627 596.913V607.212H432.035H436.532L436.356 597.142C436.356 591.574 436.62 586.92 436.973 586.844C437.414 586.691 437.678 591.268 437.502 596.913L437.149 607.212H442.087H447.024V596.913C447.024 590.582 447.377 586.615 447.906 586.615C448.435 586.615 448.788 590.582 448.788 596.913V607.212H453.637H458.575L458.398 597.295C458.398 591.879 458.575 587.378 458.927 587.378C459.28 587.378 459.456 591.879 459.456 597.295L459.28 607.212H463.777H468.185V596.837C468.185 589.59 468.45 586.539 469.155 586.768C469.86 586.997 470.125 590.353 470.037 597.142L469.86 607.212H474.71H479.559L479.912 596.685L480.176 586.234L480.353 597.066L480.529 607.974H475.239C472.329 607.974 421.808 608.203 362.821 608.432C303.924 608.661 254.901 608.585 253.931 608.356C252.256 607.898 252.168 607.135 252.168 597.219V586.615H301.808H351.359L351.095 596.913Z" fill="#CC1010" fill-opacity="0.9"/>
<path d="M139.045 634.902C138.78 635.512 138.957 636.428 139.309 636.962C139.927 637.801 140.544 637.877 142.395 637.114C144.071 636.428 158.619 636.199 198.031 636.199H251.374L254.901 639.403C256.929 641.234 258.075 641.996 257.546 641.157C257.105 640.318 255.518 638.716 254.107 637.496L251.462 635.436H197.59C162.675 635.436 143.63 635.131 143.277 634.673C142.483 633.529 139.574 633.758 139.045 634.902Z" fill="#CC1010" fill-opacity="0.9"/>
<path d="M1074 639.479C1073.48 640.7 1073.03 642.149 1073.03 642.759C1073.03 643.37 1072.77 643.827 1072.33 643.827C1071.98 643.827 1071.18 644.895 1070.48 646.192C1068.89 649.32 1058.49 658.168 1055.75 658.779C1054.61 659.008 1053.64 659.542 1053.64 659.847C1053.64 660.228 1052.49 660.686 1050.99 660.991C1048.52 661.449 1046.41 662.898 1048.17 662.898C1049.14 662.898 1057.87 659.16 1059.63 657.94C1063.78 655.27 1071.27 648.099 1071.27 646.955C1071.27 646.497 1071.71 646.116 1072.15 646.116C1072.68 646.116 1073.03 645.734 1073.03 645.277C1073.03 644.819 1073.65 643.293 1074.45 641.844C1075.24 640.471 1075.68 638.869 1075.42 638.335C1075.15 637.725 1074.62 638.259 1074 639.479Z" fill="#CC1010" fill-opacity="0.9"/>
<path d="M1042.44 663.432C1043.23 663.585 1044.64 663.585 1045.53 663.432C1046.32 663.203 1045.61 663.051 1043.94 663.051C1042.26 663.051 1041.56 663.203 1042.44 663.432Z" fill="#CC1010" fill-opacity="0.9"/>
<path d="M1029.3 664.576C1029.04 664.958 1031.51 665.187 1034.77 665.187C1038.03 665.187 1040.41 664.958 1040.06 664.653C1039.27 663.89 1029.83 663.89 1029.3 664.576Z" fill="#CC1010" fill-opacity="0.9"/>
<path d="M1144.28 537.87C1139.52 542.142 1135.64 545.728 1135.64 545.88C1135.64 546.033 1139.6 546.185 1144.45 546.185H1153.27V538.176C1153.27 533.751 1153.18 530.166 1153.09 530.242C1152.92 530.242 1148.95 533.675 1144.28 537.87Z" fill="#CC1010" fill-opacity="0.9"/>
<path d="M867.333 19.6049C866.98 19.8337 866.716 20.6728 866.716 21.4357C866.716 22.1222 866.187 23.7241 865.481 24.9447C864.776 26.0889 863.542 28.4537 862.748 30.1319C861.955 31.8101 860.985 33.7935 860.544 34.48C858.34 37.9128 859.045 38.1416 870.683 38.1416H881.705V28.6062V19.0709H874.827C871.036 19.0709 867.597 19.2997 867.333 19.6049Z" fill="#CC1010" fill-opacity="0.9"/>
<path d="M884.35 28.6062V38.1416H895.812H907.274V28.6062V19.0709H895.812H884.35V28.6062Z" fill="#CC1010" fill-opacity="0.9"/>
<path d="M909.919 28.6062V38.1416H920.94H931.962V28.6062V19.0709H920.94H909.919V28.6062Z" fill="#CC1010" fill-opacity="0.9"/>
<path d="M934.607 28.6062V38.1416H946.069H957.531V28.6062V19.0709H946.069H934.607V28.6062Z" fill="#CC1010" fill-opacity="0.9"/>
<path d="M961.058 28.6062V38.1416H972.079H983.101L986.451 35.1666C992.006 30.1319 997.649 24.9447 1000.65 21.8934L1003.56 19.0709H982.307H961.058V28.6062Z" fill="#CC1010" fill-opacity="0.9"/>
<path d="M528.141 41.269C512.359 41.4979 465.981 41.803 424.982 41.8793L350.478 41.9556L359.559 49.5839L368.641 57.2122H488.023H607.406L613.402 51.7198C616.664 48.7448 620.455 45.312 621.866 44.1678C623.189 42.9473 624.247 41.6505 624.247 41.1928C624.247 40.3537 577.252 40.3537 528.141 41.269Z" fill="#CC1010" fill-opacity="0.9"/>
<path d="M1149.13 169.806C1148.51 170.035 1147.98 171.408 1147.98 172.857C1147.98 175.375 1148.07 175.451 1151.59 175.451H1155.12L1154.86 172.552C1154.59 170.187 1154.24 169.73 1152.39 169.577C1151.15 169.501 1149.65 169.653 1149.13 169.806Z" fill="#CC1010" fill-opacity="0.9"/>
<path d="M1147.98 180.028V183.079H1151.51H1155.03V180.028V176.976H1151.51H1147.98V180.028Z" fill="#CC1010" fill-opacity="0.9"/>
<path d="M1148.33 184.91C1148.07 185.52 1147.98 187.122 1148.16 188.571C1148.42 190.86 1148.68 191.089 1151.77 191.317L1155.03 191.546V187.732V183.842H1151.95C1150.1 183.842 1148.6 184.299 1148.33 184.91Z" fill="#CC1010" fill-opacity="0.9"/>
<path d="M1147.98 195.284V198.336H1151.51H1155.03V195.284V192.233H1151.51H1147.98V195.284Z" fill="#CC1010" fill-opacity="0.9"/>
<path d="M1147.98 202.912V205.964H1151.51H1155.03V202.912V199.861H1151.51H1147.98V202.912Z" fill="#CC1010" fill-opacity="0.9"/>
<path d="M1147.98 209.778V212.829H1151.51H1155.03V209.778V206.727H1151.51H1147.98V209.778Z" fill="#CC1010" fill-opacity="0.9"/>
<path d="M1147.98 217.406V220.458H1151.51H1155.03V217.406V214.355H1151.51H1147.98V217.406Z" fill="#CC1010" fill-opacity="0.9"/>
<path d="M1148.33 222.288C1148.07 222.899 1147.98 224.501 1148.16 225.95C1148.42 228.239 1148.68 228.467 1151.77 228.696L1155.03 228.925V225.111V221.22H1151.95C1150.1 221.22 1148.6 221.678 1148.33 222.288Z" fill="#CC1010" fill-opacity="0.9"/>
<path d="M1147.98 232.663V235.714H1151.51H1155.03V232.663V229.611H1151.51H1147.98V232.663Z" fill="#CC1010" fill-opacity="0.9"/>
<path d="M1147.98 240.291V243.342H1151.51H1155.03V240.291V237.24H1151.51H1147.98V240.291Z" fill="#CC1010" fill-opacity="0.9"/>
<path d="M1147.98 247.156V250.208H1151.51H1155.03V247.156V244.105H1151.51H1147.98V247.156Z" fill="#CC1010" fill-opacity="0.9"/>
<path d="M1147.98 254.785V257.836H1151.51H1155.03V254.785V251.734H1151.51H1147.98V254.785Z" fill="#CC1010" fill-opacity="0.9"/>
<path d="M1148.33 259.667C1148.07 260.277 1147.98 261.879 1148.16 263.329C1148.42 265.617 1148.68 265.846 1151.77 266.075L1155.03 266.304V262.49V258.599H1151.95C1150.1 258.599 1148.6 259.057 1148.33 259.667Z" fill="#CC1010" fill-opacity="0.9"/>
<path d="M1147.98 270.041V273.093H1151.51H1155.03V270.041V266.99H1151.51H1147.98V270.041Z" fill="#CC1010" fill-opacity="0.9"/>
<path d="M1147.98 277.67V280.721H1151.51H1155.03V277.67V274.618H1151.51H1147.98V277.67Z" fill="#CC1010" fill-opacity="0.9"/>
<path d="M1147.98 284.535V287.586H1151.51H1155.03V284.535V281.484H1151.51H1147.98V284.535Z" fill="#CC1010" fill-opacity="0.9"/>
<path d="M1147.98 292.164V295.215H1151.51H1155.03V292.164V289.112H1151.51H1147.98V292.164Z" fill="#CC1010" fill-opacity="0.9"/>
<path d="M1148.33 297.045C1148.07 297.656 1147.98 299.257 1148.16 300.707C1148.42 302.995 1148.68 303.224 1151.77 303.453L1155.03 303.682V299.868V295.977H1151.95C1150.1 295.977 1148.6 296.435 1148.33 297.045Z" fill="#CC1010" fill-opacity="0.9"/>
<path d="M146.217 73.1722C143.64 73.4694 140.119 74.1382 138.487 74.6583C134.106 75.9959 126.119 79.414 125.775 80.0828C125.604 80.38 125.002 80.6773 124.401 80.6773C122.34 80.6773 112.205 88.9254 108.426 93.6811C106.794 95.6874 105.248 97.545 104.905 97.768C104.561 98.0652 103.273 100.443 100.696 105.57C97.862 111.292 97.0032 115.676 97.0032 124.593C96.9173 136.259 98.5491 141.238 106.451 153.87C108.168 156.619 120.193 167.023 123.199 168.434C138.573 175.494 143.64 176.682 157.468 176.682C165.369 176.682 169.578 176.311 172.927 175.345C180.657 173.264 189.847 169.177 195.086 165.536C200.24 161.97 208.313 153.647 210.288 150.006C216.558 138.043 216.902 136.556 216.988 124.89C217.074 116.419 216.73 113.67 215.356 110.029C213.295 104.53 207.454 94.6471 205.822 93.8297C205.135 93.5324 204.62 92.8637 204.62 92.4921C204.62 91.6748 198.78 86.5475 193.97 83.0551C190.878 80.8259 180.571 76.2188 174.817 74.5097C169.664 73.0236 153.775 72.2805 146.217 73.1722ZM172.842 80.6773C189.246 85.21 201.7 95.7617 207.884 110.326C209.773 114.636 210.031 136.482 208.313 138.043C207.712 138.488 207.197 139.454 207.197 140.198C207.197 141.461 202.644 149.337 200.841 150.972C200.326 151.567 198.78 153.276 197.319 154.836C195.945 156.397 193.369 158.626 191.565 159.815C189.761 161.078 187.786 162.415 187.185 162.787C185.295 164.199 175.075 168.286 170.351 169.4C164.167 170.961 149.652 170.961 143.554 169.4C135.824 167.394 134.192 166.725 127.837 163.159C117.616 157.363 110.058 148.743 106.107 138.414C103.616 131.801 103.273 118.871 105.506 112.555C110.917 97.0992 123.714 85.5815 141.063 80.6029C148.02 78.671 165.541 78.671 172.842 80.6773Z" fill="#D41E1E"/>
<path d="M149.652 83.6496C139.517 85.2101 137.027 86.2504 138.916 87.8109C140.977 89.5942 140.376 90.6345 136.511 92.1207C132.646 93.6068 121.653 102.747 119.677 106.09C118.647 107.874 116.156 108.245 116.156 106.611C116.156 106.239 115.641 105.942 115.125 105.942C113.923 105.942 111.862 110.103 110.144 115.602C108.168 122.29 110.316 139.083 113.493 141.832C114.352 142.501 114.868 142.353 115.812 141.238C117.101 139.752 117.101 139.752 118.733 141.609C119.677 142.65 120.45 143.839 120.45 144.359C120.45 146.737 137.628 159.518 137.628 157.14C137.628 156.768 136.683 156.322 135.481 156.025C134.278 155.802 133.591 155.282 133.849 154.911C134.106 154.539 133.763 154.242 133.162 154.242C130.413 154.242 118.733 142.13 118.733 139.38C118.733 138.934 119.506 137.894 120.364 137.002C121.653 135.813 121.91 134.922 121.481 133.138C120.45 129.126 120.794 117.608 122.082 115.082C123.113 112.852 123.113 112.555 121.137 111.069C119.076 109.509 119.076 109.286 120.279 107.205C123.027 102.449 133.677 93.3096 136.511 93.3096C137.112 93.3096 137.628 93.0124 137.628 92.6408C137.628 91.3033 142.094 91.0061 143.726 92.2693C145.014 93.3096 147.419 93.5325 157.897 93.6068C167.001 93.6811 170.866 93.4582 171.639 92.7895C172.842 91.6748 176.277 91.5262 176.277 92.4922C176.277 92.8638 177.222 93.3839 178.424 93.6068C181.259 94.2013 192.338 103.787 193.111 106.239C193.369 107.279 193.97 108.171 194.399 108.171C195.516 108.171 195.344 111.143 194.056 112.184C192.424 113.67 192.853 134.55 194.571 136.259C195.945 137.597 195.688 141.609 194.228 141.609C193.798 141.609 193.455 142.055 193.455 142.575C193.455 144.953 182.719 154.39 177.737 156.322C175.161 157.288 172.498 156.62 171.811 154.836C171.553 154.167 170.694 154.242 168.461 155.059C165.369 156.174 152.229 156.545 147.419 155.579C145.358 155.208 144.327 155.431 142.953 156.545C141.922 157.288 140.548 157.957 139.775 157.957C139.002 157.957 138.658 158.329 138.916 158.774C139.26 159.22 138.83 160.038 137.971 160.632C136.425 161.672 136.425 161.672 138.057 162.787C139.002 163.456 141.235 164.125 142.953 164.422C144.756 164.645 146.474 165.165 146.732 165.462C147.333 166.428 167.431 166.28 168.118 165.388C168.375 164.942 169.32 164.645 170.093 164.645C172.069 164.645 178.854 162.193 178.854 161.45C178.854 161.078 178.252 160.335 177.565 159.666C176.535 158.774 176.449 158.329 177.222 157.511C177.737 156.917 178.682 156.471 179.197 156.471C180.056 156.471 181.259 155.654 187.185 151.195C190.105 148.892 193.369 145.325 194.915 142.353C196.546 139.157 197.749 138.711 199.81 140.495C200.927 141.535 201.184 141.461 202.043 140.198C202.473 139.38 202.902 138.117 202.902 137.374C202.902 136.557 203.332 135.591 203.933 135.07C205.307 133.881 205.307 117.385 203.933 114.264C203.332 112.927 202.473 110.846 201.957 109.657C200.927 107.279 198.865 106.685 198.092 108.543C197.234 110.326 196.461 109.88 194.313 106.165C192.166 102.375 182.117 93.3096 180.056 93.3096C179.369 93.3096 178.854 92.9381 178.854 92.5665C178.854 92.1207 178.338 91.8235 177.651 91.8235C177.05 91.8235 176.019 91.3776 175.504 90.7832C174.731 90.0401 174.817 89.6685 175.848 89.297C176.535 89.0741 177.136 88.4053 177.136 87.8852C177.136 84.9872 158.928 82.1635 149.652 83.6496Z" fill="#D41E1E"/>
<path d="M147.075 100.443C134.708 104.307 126.548 115.23 127.579 126.599C128.094 133.287 130.671 137.894 136.254 142.798C142.953 148.52 147.333 150.08 157.038 150.155C163.909 150.155 165.369 149.932 169.664 148C175.332 145.548 180.4 141.461 182.719 137.374C183.663 135.813 184.866 134.327 185.295 134.03C185.811 133.733 186.154 129.869 186.154 125.113C186.154 117.237 185.982 116.494 183.663 113.001C180.228 107.725 176.019 104.233 170.437 101.781C164.339 99.1056 153.345 98.5111 147.075 100.443ZM165.112 110.92C169.32 113.298 173.615 117.905 174.216 120.506C174.989 124.073 174.216 131.429 173.013 131.801C172.412 131.949 171.983 132.395 171.983 132.841C171.983 133.213 170.952 134.476 169.664 135.591C161.419 142.575 148.793 141.312 142.094 132.915C140.033 130.463 139.775 129.349 139.775 124.221C139.775 120.135 140.119 118.203 140.892 117.98C141.407 117.831 141.922 117.385 141.922 116.939C141.922 115.973 146.732 111.886 147.848 111.886C148.364 111.886 148.793 111.589 148.793 111.218C148.793 109.36 162.106 109.137 165.112 110.92Z" fill="#D41E1E"/>
<path d="M1029.95 595.917C1032.73 596.059 1037.15 596.059 1039.77 595.917C1042.31 595.774 1040.02 595.703 1034.62 595.703C1029.22 595.703 1027.09 595.774 1029.95 595.917Z" fill="#D41E1E"/>
<path d="M1019.97 597.334C1019.07 597.546 1016.94 598.466 1015.22 599.387C1013.5 600.307 1011.95 601.086 1011.7 601.086C1010.97 601.086 1001.48 609.44 1001.48 610.148C1001.48 610.573 1000.98 611.351 1000.49 611.847C999.02 613.121 996.565 617.865 996.565 619.352C996.565 620.06 996.156 620.98 995.665 621.405C995.174 621.83 994.929 623.246 995.092 624.52C995.338 626.715 995.502 626.502 996.484 622.679C997.056 620.343 997.875 618.077 998.202 617.723C998.529 617.298 999.02 616.166 999.348 615.033C999.593 613.971 1000.25 613.121 1000.66 613.121C1001.15 613.121 1001.48 612.697 1001.48 612.201C1001.48 610.997 1009.58 603.21 1010.89 603.21C1011.46 603.21 1012.11 602.714 1012.44 602.148C1012.69 601.581 1013.42 601.086 1014.16 601.086C1014.81 601.086 1015.39 600.732 1015.39 600.378C1015.39 599.953 1015.8 599.67 1016.29 599.67C1016.78 599.67 1018.33 599.245 1019.72 598.679C1021.2 598.112 1023.08 597.475 1023.98 597.334C1025.21 597.05 1025.12 596.98 1023.57 596.98C1022.42 596.98 1020.79 597.192 1019.97 597.334Z" fill="#D41E1E"/>
<path d="M1046.07 597.333C1046.97 597.546 1048.2 598.041 1048.77 598.395C1049.35 598.82 1050 598.962 1050.33 598.679C1051.15 597.971 1050.16 597.475 1047.22 597.263C1045.66 597.121 1045.17 597.192 1046.07 597.333Z" fill="#D41E1E"/>
<path d="M1029.95 597.9C1029.62 598.183 1027.66 598.678 1025.62 599.032C1015.55 600.661 1006.71 606.962 1001.15 616.236C998.693 620.413 998.611 620.909 998.611 629.405C998.611 639.104 999.347 641.37 1004.26 647.812C1007.61 652.131 1010.15 654.255 1014.98 656.733C1021.85 660.202 1026.43 661.264 1034.62 661.264C1049.43 661.264 1060.64 655.387 1067.51 643.918C1070.54 638.962 1070.54 638.892 1070.54 630.113C1070.62 621.475 1070.54 621.121 1067.92 616.661C1064.32 610.502 1063.67 609.581 1060.88 607.528C1059.49 606.537 1057.86 605.121 1057.2 604.484C1055.32 602.785 1047.95 599.74 1043.45 598.891C1038.22 597.829 1030.69 597.333 1029.95 597.9ZM1044.76 603.21C1053.76 606.041 1059.66 610.572 1063.75 617.865C1066.2 622.183 1066.45 623.245 1066.45 629.334C1066.53 637.051 1065.14 641.299 1060.88 646.042C1057.37 650.007 1053.11 653.476 1051.72 653.476C1051.06 653.476 1050.57 653.759 1050.57 654.184C1050.57 654.538 1050.16 654.892 1049.67 654.892C1049.18 654.892 1047.63 655.317 1046.24 655.883C1040.92 657.865 1034.94 658.503 1030.2 657.653C1027.66 657.228 1024.47 656.379 1023 655.883C1021.61 655.317 1020.05 654.892 1019.56 654.892C1019.07 654.892 1018.66 654.609 1018.66 654.255C1018.66 653.901 1017.92 653.334 1016.94 653.122C1013.42 652.131 1006.79 645.263 1004.58 640.378C1001.64 633.653 1001.23 630.537 1002.78 624.449C1003.52 621.334 1004.42 618.785 1004.75 618.785C1005.08 618.785 1005.65 618.006 1005.89 617.015C1006.63 614.608 1010.56 610.502 1015.47 607.103C1022.83 602.006 1035.6 600.307 1044.76 603.21Z" fill="#D41E1E"/>
<path d="M1026.27 605.404C1024.31 605.9 1023.57 606.466 1023.57 607.67C1023.57 609.935 1026.84 610.785 1035.6 610.856C1042.64 610.856 1043.29 610.785 1045.25 609.015L1047.38 607.174L1045.09 606.112C1042.31 604.838 1030.03 604.342 1026.27 605.404Z" fill="#D41E1E"/>
<path d="M1016.61 613.192C1015.71 614.325 1016.53 614.537 1017.68 613.404C1018.25 612.838 1018.33 612.413 1017.92 612.413C1017.51 612.413 1016.86 612.767 1016.61 613.192Z" fill="#D41E1E"/>
<path d="M1051.96 613.829C1052.78 614.608 1053.68 615.245 1054.01 615.245C1054.34 615.245 1054.01 614.608 1053.27 613.829C1052.46 613.051 1051.56 612.413 1051.23 612.413C1050.9 612.413 1051.23 613.051 1051.96 613.829Z" fill="#D41E1E"/>
<path d="M1027.5 615.033C1026.68 615.174 1026.02 615.67 1026.02 616.024C1026.02 616.378 1025.62 616.661 1025.12 616.661C1024.06 616.661 1020.38 619.847 1018.33 622.608C1015.96 625.794 1016.29 634.077 1018.91 637.688C1021.52 641.299 1023.24 642.502 1027.91 644.201C1032.65 645.971 1035.27 646.042 1040.02 644.626C1045.01 643.069 1048.28 640.661 1050.57 636.838C1055.07 629.263 1051.64 620.13 1042.64 615.741C1040.18 614.608 1031.34 614.183 1027.5 615.033ZM1040.67 622.325C1045.66 625.298 1046.97 630.396 1043.86 634.36C1039.12 640.378 1031.59 640.803 1026.19 635.422C1018.17 627.422 1030.69 616.095 1040.67 622.325Z" fill="#D41E1E"/>
<path d="M1056.79 626.927C1056.87 635.069 1057.12 636.697 1058.35 637.9C1059.17 638.679 1060.23 639.316 1060.72 639.316C1063.75 639.316 1064.81 626.502 1062.28 621.475C1060.97 618.927 1059.57 617.935 1059.57 619.493C1059.57 620.697 1058.18 620.272 1057.45 618.785C1056.96 617.794 1056.71 620.697 1056.79 626.927Z" fill="#D41E1E"/>
<path d="M1006.88 621.759C1004.26 628.838 1005.89 640.378 1009.41 639.883C1011.87 639.529 1013.1 636.555 1012.52 632.237C1012.28 630.113 1012.36 627.068 1012.77 625.44C1013.67 622.113 1012.36 619.21 1009.74 618.573C1008.51 618.289 1007.94 618.856 1006.88 621.759Z" fill="#D41E1E"/>
<path d="M1014.24 643.776C1014.49 644.484 1014.98 644.838 1015.22 644.626C1015.47 644.414 1015.22 643.847 1014.65 643.352C1013.83 642.715 1013.75 642.785 1014.24 643.776Z" fill="#D41E1E"/>
<path d="M1025.78 648.874C1024.88 649.369 1023.65 649.653 1022.91 649.44C1021.69 649.157 1021.69 649.228 1022.75 649.936C1023.65 650.573 1023.73 650.856 1022.91 651.139C1021.44 651.635 1022.51 652.626 1025.78 653.83C1029.62 655.246 1039.04 655.175 1044.11 653.759C1047.71 652.697 1049.51 651.352 1047.22 651.352C1046.73 651.352 1046.48 650.856 1046.81 650.29C1047.14 649.582 1046.73 649.228 1045.66 649.228C1044.76 649.228 1044.03 648.874 1044.03 648.52C1044.03 647.6 1041.33 647.6 1040.18 648.591C1039.28 649.369 1030.77 649.157 1028.48 648.307C1027.82 648.095 1026.6 648.307 1025.78 648.874Z" fill="#D41E1E"/>
<path d="M1052.7 600.024C1053.52 600.59 1054.75 601.086 1055.32 601.086C1055.89 601.086 1056.55 601.581 1056.79 602.147C1057.12 602.714 1057.69 603.209 1058.27 603.209C1059.08 603.209 1061.13 605.121 1066.94 610.926C1067.84 611.847 1068.58 613.05 1068.58 613.617C1068.58 614.112 1068.9 614.537 1069.31 614.537C1069.72 614.537 1070.21 614.962 1070.46 615.387C1070.62 615.882 1070.62 615.528 1070.46 614.608C1070.29 613.688 1069.56 612.484 1068.99 611.918C1068.33 611.351 1067.76 610.643 1067.76 610.289C1067.76 609.369 1061.05 603.634 1057.12 601.156C1053.6 598.962 1049.35 597.829 1052.7 600.024Z" fill="#D41E1E"/>
<path d="M1071.03 617.865C1071.03 618.219 1071.44 618.927 1071.85 619.493C1072.5 620.343 1072.67 620.272 1072.67 618.927C1072.67 618.077 1072.34 617.369 1071.85 617.369C1071.44 617.369 1071.03 617.581 1071.03 617.865Z" fill="#D41E1E"/>
<path d="M1072.67 623.245C1072.67 624.874 1073 625.794 1073.49 625.511C1074.55 624.944 1074.55 623.033 1073.49 621.617C1072.91 620.838 1072.67 621.263 1072.67 623.245Z" fill="#D41E1E"/>
<path d="M1074.55 629.759C1074.55 631.316 1074.71 631.883 1074.88 630.962C1075.04 630.113 1075.04 628.839 1074.88 628.131C1074.63 627.493 1074.47 628.201 1074.55 629.759Z" fill="#D41E1E"/>
<path d="M995.011 634.856C994.929 636.484 995.338 638.042 995.747 638.254C996.238 638.467 996.565 639.316 996.565 640.024C996.565 643.847 1005.08 654.326 1011.38 658.078C1014.98 660.343 1021.93 662.75 1025.12 663.034C1027.17 663.175 1028.15 663.175 1027.25 662.963C1022.91 662.042 1017.02 660.202 1017.02 659.777C1017.02 659.494 1016.12 659.069 1014.98 658.857C1012.6 658.361 1001.48 648.945 1001.48 647.458C1001.48 646.963 1000.9 646.184 1000.25 645.688C999.593 645.193 999.02 644.201 999.02 643.493C999.02 642.715 998.693 642.148 998.284 642.148C997.875 642.148 997.302 640.449 996.974 638.396C996.074 633.015 995.011 631.104 995.011 634.856Z" fill="#D41E1E"/>
<path d="M1072.67 636.272C1072.67 637.688 1072.91 638.608 1073.24 638.396C1074.06 637.688 1074.14 633.652 1073.32 633.652C1073 633.652 1072.67 634.785 1072.67 636.272Z" fill="#D41E1E"/>
</svg>
