<svg width="1019" height="1219" viewBox="0 0 1019 1219" fill="none" xmlns="http://www.w3.org/2000/svg">
<path d="M1006.1 50.7046C1000.57 46.3365 990.08 37.7779 982.634 31.805C975.188 25.832 963.343 16.2037 956.461 10.4977L943.713 0.156149L893.374 0.265129L842.923 0.374352L830.893 9.78623L818.864 19.1981L701.632 19.4519L584.512 19.7055L579.341 23.7392L574.282 27.7726L508.627 27.9148L442.973 28.0569L441.729 25.8249C439.92 22.7002 433.501 22.7141 430.467 25.8492C428.332 27.9992 427.657 28.0901 417.522 28.112C407.386 28.1339 406.71 28.046 405.016 25.9043C402.081 22.4245 393.074 23.4273 393.082 27.1816C393.083 27.8073 389.255 28.1732 382.386 28.1881C376.53 28.2007 371.687 27.8537 371.686 27.4067C371.682 25.7083 368.074 23.7496 364.921 23.7564C362.781 23.7611 360.981 24.5695 359.52 26.0028C357.385 28.1528 356.71 28.2436 346.124 28.2666C335.763 28.289 334.975 28.2013 333.957 26.237C331.922 22.6658 322.127 23.5809 322.135 27.3352C322.136 28.0503 307.046 28.3512 272.586 28.4258C245.333 28.4848 223.035 28.2649 223.034 27.9073C223.033 27.4604 221.566 25.8546 219.873 24.3386L216.714 21.3956L158.492 21.5217L100.27 21.6477L86.8919 32.4033L73.514 43.159L52.1171 43.2053C35.4501 43.2414 30.2704 43.5208 29.1464 44.5065C26.2236 46.9263 21.5033 51.3166 21.504 51.6741C21.5048 52.0317 15.211 57.8556 10.6023 61.7987L8.01677 63.9496L8.13462 118.387C8.25054 171.931 8.25267 172.914 10.5073 173.982C12.7621 175.139 12.7642 176.122 13.5803 553.074L14.3985 931.008L8.21455 935.581L2.0306 940.153L2.16471 1002.1L2.29901 1064.13L6.57838 1064.13C8.94329 1064.12 11.4218 1064.56 12.2114 1065.19C13.1139 1065.9 13.5741 1070.37 13.5936 1079.4L13.6222 1092.63L23.3232 1100.02C40.0179 1112.77 43.2891 1115.27 53.4409 1122.84C60.4345 1128.1 63.2554 1130.69 62.8073 1131.76C62.4712 1132.57 63.7167 1135.69 65.5248 1138.55C68.8018 1143.73 68.9152 1144.08 68.9444 1157.58L68.9744 1171.44L80.9325 1181.06C87.4756 1186.32 93.5682 1191.58 94.4713 1192.57C96.0516 1194.26 97.2907 1194.44 107.877 1194.41L119.588 1194.39L130.418 1203.04C136.397 1207.85 143.053 1213.29 145.197 1215.07L149.146 1218.46L189.349 1218.37L229.553 1218.29L241.357 1208.87L253.161 1199.46L311.045 1199.34L368.93 1199.21L372.414 1196.25C374.325 1194.64 377.36 1191.77 379.045 1189.98L382.191 1186.67L410.795 1186.61L439.399 1186.55L449.855 1178.39L460.311 1170.32L513.802 1170.03C548.375 1169.86 567.406 1169.37 567.63 1168.84C567.741 1168.21 550.06 1167.89 516.613 1167.79C488.459 1167.76 465.372 1167.36 465.371 1167C465.371 1166.64 468.518 1163.78 472.452 1160.73L479.535 1155.17L654.201 1154.79L828.867 1154.42L832.816 1157.98L836.765 1161.55L845.662 1161.53C854.221 1161.51 854.784 1161.6 857.605 1164.19L860.651 1166.86L815.042 1166.96C775.289 1167.05 769.433 1167.24 769.436 1168.4C769.439 1169.56 775.408 1169.73 816.512 1169.64L863.698 1169.54L866.405 1171.85L869.113 1174.26L903.347 1173.65L937.581 1173.04L948.936 1164.26C955.232 1159.42 967.037 1150.27 975.244 1144L990.085 1132.52L989.969 1079.25L989.854 1026.06L974.061 1013.67L958.268 1001.37L957.878 821.252L957.489 641.134L947.674 633.468C942.26 629.279 937.748 625.892 937.523 625.892C937.41 625.892 935.267 624.199 932.672 622.148L928.159 618.404L927.892 494.779L927.624 371.155L932.682 366.853C935.38 364.524 947.072 355.023 958.538 345.702L979.335 328.673L979.281 303.733L979.227 278.794L997.777 264.005L1016.33 249.215L1016.12 154.017L1015.91 58.7284L1006.1 50.7046ZM934.926 102.794L924.228 103.085L912.762 112.585C906.354 117.873 901.182 121.728 901.181 121.281C901.18 120.745 898.697 118.158 895.538 115.483C892.492 112.808 890.009 110.221 889.895 109.595C889.893 108.97 893.49 105.654 897.762 102.248L905.631 95.8848L905.595 78.9903C905.574 69.6939 905.894 61.3801 906.23 60.5748C906.791 59.4116 911.528 62.7981 926.645 74.9223L946.274 90.7016L945.949 96.602L945.624 102.502L934.926 102.794ZM927.894 235.82L909.344 250.162L909.747 436.716L910.151 623.18L924.816 634.859L939.482 646.447L939.667 732.26L939.853 818.073L934.898 818.084C930.731 818.093 929.493 818.543 927.133 820.783L924.211 823.471L552.132 824.276C222.395 824.99 179.826 824.903 179.261 823.742C178.469 822.046 174.414 822.055 172.278 823.668C171.379 824.385 170.707 825.996 170.709 827.247C170.713 828.946 167.566 831.992 158.348 839.431C151.603 844.809 145.531 849.381 144.856 849.382C142.717 849.655 142.041 849.835 139.566 850.913C136.641 852.171 136.085 855.39 138.676 856.1C140.141 856.544 140.378 861.817 140.451 895.427C140.532 933.06 140.422 934.222 138.395 934.226C135.242 934.233 130.41 939.249 130.417 942.467C130.432 949.171 136.971 952.822 146.992 951.638L151.27 951.093L174.621 969.635C193.122 984.344 197.974 988.714 198.317 990.859C198.546 992.646 199.562 993.806 201.252 994.428L203.732 995.316L203.81 1031.34C203.882 1064.77 203.775 1067.36 201.974 1067.9C200.849 1068.26 199.387 1069.07 198.825 1069.7C197.926 1070.59 195.562 1070.87 190.381 1070.7L183.06 1070.45L182.691 1055.97L182.435 1041.4L168.921 1041.43L155.407 1041.46L155.429 1051.56C155.461 1066.4 150.752 1076.15 138.836 1085.83C130.742 1092.46 128.83 1093.63 120.841 1096.86C109.59 1101.45 102.723 1102.62 88.8701 1102.21L76.5941 1101.79L75.0239 1104.74C74.2389 1106.26 72.4455 1110.2 71.1013 1113.51C69.6443 1116.73 67.9609 1119.41 67.2852 1119.42C66.6095 1119.42 56.4581 1112.02 44.839 1102.93L23.6318 1086.53L23.9459 1075.53C24.2599 1064.53 24.2599 1064.53 27.0747 1064.26L29.8895 1063.99L29.8616 1051.11C29.8419 1042 30.2834 1037.88 31.2952 1037.08C31.9698 1036.54 32.6429 1035.38 32.6412 1034.57C32.6394 1033.77 33.5359 1031.71 34.6584 1030.01C40.8313 1020.34 52.973 1010.75 64.6757 1006.43C67.1511 1005.44 70.0767 1004.37 71.2019 1003.92C73.4523 1003.02 87.9757 1001.2 92.2551 1001.19C97.6608 1001.27 111.178 1003.03 113.207 1003.83C114.447 1004.36 117.603 1005.6 120.421 1006.58L125.492 1008.45L125.798 993.518C125.893 985.294 125.764 978.054 125.538 977.429C125.086 976.625 122.269 976.274 115.85 976.288L106.841 976.307L106.82 966.475L106.799 956.642L98.9156 956.659L91.0326 956.676L90.9368 912.429C90.8842 888.115 91.1788 868.181 91.7419 868.179C92.1924 868.178 96.1279 865.399 100.625 862.082C105.01 858.765 112.206 853.565 116.592 850.427L124.575 844.778L124.281 708.907L123.987 573.126L127.36 570.705C133.432 566.401 131.165 559.613 123.507 559.451C115.736 559.289 112.483 565.195 117.786 569.743L120.606 572.15L120.9 707.842C121.086 845.59 121.088 846.663 117.372 846.671C117.034 846.671 113.211 849.361 108.939 852.767C104.779 856.084 98.1453 860.925 94.3222 863.615L87.4631 868.457L87.3329 912.347L87.0901 956.238L82.9239 956.515L78.6451 956.792L78.5313 904.232C78.4688 875.359 78.8672 851.313 79.3165 850.775C79.766 850.328 82.3517 848.266 85.163 846.383C87.9742 844.41 94.3833 839.837 99.4429 836.072L108.775 829.348L108.447 677.477L108.118 525.695L104.283 522.843C102.14 521.238 96.7259 517.406 92.2143 514.198C87.5902 510.99 82.7402 507.515 81.3865 506.445L78.7921 504.484L78.5637 399.005L78.3354 293.527L74.0492 290.408C71.7933 288.714 68.748 286.575 67.2819 285.595C65.0261 283.991 64.7989 283.098 64.7823 275.41C64.7707 270.047 65.2138 266.649 66.1132 265.932C66.9001 265.305 67.0118 264.858 66.5613 264.859C63.9712 264.864 62.6275 268.443 62.529 274.968L62.5439 281.851L59.1603 279.445L55.7768 277.128L55.6254 207.226L55.4743 137.414L77.0594 120.294C88.9763 110.882 113.597 91.4316 131.584 77.0905L164.524 51.007L529.734 50.2163L894.945 49.4256L898.554 52.0101L902.163 54.684L902.208 75.0645L902.252 95.4451L894.945 101.539C887.525 107.545 885.163 108.622 883.468 106.302C882.339 104.874 869.6 98.7338 863.402 96.6913C856.415 94.3823 851.908 93.4982 840.644 92.0923C825.099 90.1594 807.874 92.5208 792.008 98.6336C788.52 99.982 785.595 101.329 785.371 101.777C785.146 102.135 784.358 102.405 783.57 102.406C779.629 102.415 757.032 120.61 757.039 123.738C757.04 124.275 756.704 124.812 756.141 124.992C755.691 125.171 753.782 127.857 751.875 131.079C748.845 136.27 747.837 138.597 744.702 147.185C743.919 149.421 743.919 149.421 729.054 149.722L714.189 150.022L704.375 142.088C698.96 137.719 691.74 131.835 688.355 128.893C684.97 126.04 675.719 118.283 667.822 111.775C659.924 105.177 653.381 99.7383 653.381 99.6489C653.38 99.4701 647.627 94.7449 640.632 89.0392L627.884 78.6083L423.488 79.0508C278.102 79.3655 218.753 79.2258 217.851 78.5127C217.174 77.9778 215.484 77.7133 214.021 77.8953C211.769 78.0789 211.32 78.7056 211.325 81.2979C211.331 83.9795 211.782 84.4255 214.261 84.6883C215.838 84.8637 217.751 84.3232 218.65 83.6061C219.886 82.352 241.17 82.1272 423.944 81.7315L627.89 81.2899L638.043 89.6705C648.986 98.5857 674.709 120.073 679.787 124.531C681.479 126.047 689.602 132.734 697.725 139.42L712.617 151.724L728.157 151.69C756.141 150.022 743.586 151.925 743.701 152.819C743.702 153.355 743.708 156.126 743.601 158.808C743.502 164.976 745.44 175.788 747.703 180.967C749.515 185.344 755.053 194.717 756.181 195.43C756.519 195.697 757.197 196.769 757.65 197.93C758.103 199.001 759.006 199.893 759.569 199.892C760.132 199.891 760.583 200.337 760.584 200.784C760.587 202.035 776.944 215.051 778.408 215.047C779.084 215.046 779.761 215.402 779.987 215.759C780.439 216.563 790.247 221.279 794.98 222.967C827.776 234.338 867.741 228.173 891.572 208.009C897.642 202.901 898.316 202.273 900.9 199.139C902.022 197.617 903.258 196.274 903.596 196.005C905.057 194.84 911.453 184.188 911.45 182.758C911.448 181.864 911.896 180.791 912.458 180.343C913.582 179.357 915.814 169.787 916.699 162.456C917.696 154.677 913.61 140.204 907.732 130.027C905.924 126.991 904.566 123.955 904.789 123.24C905.013 122.524 909.509 118.313 914.904 113.832L924.684 105.676L934.707 105.655C940.225 105.643 945.068 105.9 945.407 106.257C945.858 106.524 946.252 132.625 946.32 164.09L946.557 221.388L927.894 235.82ZM926.697 983.471L913.207 994.227L913.305 1039.46L913.402 1084.6L886.534 1106.11L859.553 1127.53L669.121 1127.95L478.689 1128.36L475.755 1125.68C470.564 1120.78 461.898 1123.21 461.912 1129.56C461.924 1135.28 470.826 1137.67 475.884 1133.28L478.469 1131.04L669.352 1130.63L860.234 1130.21L882.043 1112.65C894.072 1103.06 906.776 1092.84 910.374 1090.06L916.782 1084.95L916.796 1039.36L916.809 993.772L927.491 986.151C933.338 981.937 938.624 978.44 939.186 978.26C939.749 978.08 940.251 1001.77 940.327 1036.99L940.455 1096.07L912.012 1118.75L883.57 1141.51L810.371 1142.21C770.169 1142.65 677.262 1143.39 603.838 1143.91L470.391 1144.73L459.711 1153.61L449.032 1162.39L388.107 1162.52C331.687 1162.64 327.07 1162.56 324.927 1161.14C323.686 1160.25 320.98 1158.47 318.837 1157.13L315.115 1154.63L293.381 1154.68C274.799 1154.72 271.646 1154.91 271.649 1156.07C271.651 1157.23 274.805 1157.4 293.499 1157.36L315.346 1157.32L320.872 1160.7L326.285 1164L386.309 1164.31L446.222 1164.63L440.489 1169.83L434.644 1174.93L321.129 1175.18L207.5 1175.43L207.384 1121.79C207.306 1085.86 206.93 1068.16 206.142 1068.16C204.79 1068.17 205.086 996.475 206.538 991.109C207.319 987.8 207.319 987.71 203.828 987.718C200.787 987.725 197.291 985.319 176.196 968.559L151.942 949.482L153.061 946.262C155.076 940.537 151.685 934.644 146.053 934.031L143.349 933.769L142.929 895.511C142.631 862.08 142.846 857.253 144.309 856.803C145.209 856.443 145.994 855.19 145.992 854.028C145.984 850.542 172.291 829.568 176.683 829.558C178.372 829.555 179.723 829.194 179.722 828.658C179.72 828.032 304.722 827.493 552.475 826.957C757.772 826.512 925.231 826.508 925.232 826.954C925.233 827.312 926.475 828.74 928.054 830.077C930.085 831.86 931.888 832.393 935.38 832.385L939.884 832.376L940.036 902.545L940.188 972.715L926.697 983.471ZM911.883 174.712C910.989 177.843 909.757 181.153 909.309 182.137C908.748 183.122 907.402 185.717 906.281 187.954C905.16 190.191 903.925 192.16 903.588 192.429C903.251 192.698 901.116 195.116 898.757 197.892C891.344 206.758 877.85 215.815 865.359 220.401C851.518 225.437 843.638 226.706 827.984 226.293C815.032 225.963 805.006 224.644 802.976 223.039C802.299 222.504 801.06 222.15 800.159 222.152C797.906 222.156 786.184 217.265 780.884 214.238C775.923 211.299 763.965 201.849 763.963 200.866C763.962 200.419 763.623 199.883 763.06 199.706C762.609 199.617 760.69 197.476 758.77 194.977C755.608 190.962 754.478 189.176 750.521 182.034C747.921 177.391 746.552 169.617 746.532 160.142C746.623 150.22 748.739 139.131 750.428 139.127C750.991 139.126 751.44 138.321 751.437 137.248C751.432 134.835 759.178 123.555 764.348 118.627C768.618 114.417 777.275 107.783 778.289 107.781C778.852 107.78 779.527 107.421 779.751 107.063C779.976 106.705 782.675 105.179 785.712 103.653C790.888 101.228 794.488 99.7903 802.028 97.0923C811.705 93.6746 833.212 92.466 846.731 94.7608C851.913 95.5541 856.42 96.617 856.759 97.0632C857.097 97.4201 858.224 97.7752 859.238 97.773C861.715 97.7676 872.874 102.302 878.399 105.508C891.141 112.9 903.33 125.388 908.647 136.55C913.625 146.909 915.126 164.247 911.883 174.712ZM397.051 39.7769L235.899 40.1258L232.852 37.3613C231.16 35.8454 229.805 34.4181 229.805 34.1499C229.804 33.9711 229.014 33.0789 227.999 32.366C226.532 31.2071 226.532 30.8496 227.769 30.2212C228.556 29.7725 249.615 29.3694 274.615 29.3153L319.886 29.2173L322.369 31.4466C325.641 34.4787 334.538 34.4595 334.531 31.4203C334.527 29.6325 337.229 29.1797 347.364 29.1578C355.811 29.1395 356.824 29.3161 359.081 31.3671C360.661 32.7939 362.69 33.594 364.942 33.5892C367.194 33.5843 369.22 32.7754 370.793 31.3418C373.041 29.281 374.054 29.1 382.05 29.0827C390.046 29.0654 391.172 29.3311 393.767 31.292C395.684 32.8075 397.826 33.518 400.303 33.5126C403.119 33.5065 404.581 32.8776 405.929 31.2657C407.614 29.1167 408.402 29.0256 417.636 29.0056C426.758 28.9859 427.772 29.1625 430.254 31.213C433.864 34.2445 439.495 34.2323 441.966 31.1877L443.763 28.9491L505.588 28.8152C539.598 28.7416 568.316 28.9476 569.442 29.3027C571.02 29.7462 570.121 30.7315 564.837 34.676L558.203 39.428L397.051 39.7769ZM65.1598 1126.03C63.8117 1127.56 62.7971 1127.02 53.4343 1119.8C47.7941 1115.44 36.9651 1107.15 29.5199 1101.35L15.7581 1090.83L16.0674 1077.69C16.3799 1065.98 16.6021 1064.55 18.4033 1064.28C20.092 1064.01 20.3193 1064.99 20.3428 1075.81L20.3683 1087.61L24.6542 1090.63C40.5585 1102.4 66.6167 1122.72 66.6184 1123.53C66.6194 1123.98 65.9462 1125.14 65.1598 1126.03ZM43.6267 803.03C43.1762 803.031 41.8274 804.196 40.8171 805.717C39.6941 807.15 38.2338 808.852 37.4468 809.479C36.6599 810.106 34.637 812.077 32.9517 813.869L29.9181 817.093L30.0284 868.045L30.1387 918.996L26.2031 921.776C24.0669 923.39 22.0426 924.645 21.7047 924.646C20.9164 924.648 19.4238 183.17 20.2108 182.542C20.5478 182.184 25.8487 185.838 31.9401 190.562L42.9952 199.209L43.7615 501.163C44.1208 667.157 44.0772 803.029 43.6267 803.03Z" fill="#CC1010" fill-opacity="0.9"/>
<path d="M920.538 147.33C920.016 143.964 918.847 139.364 917.941 137.233C915.61 131.512 909.664 121.085 908.504 120.638C907.988 120.415 907.471 119.63 907.469 118.845C907.464 116.15 893.14 102.935 884.887 98.0129C881.405 95.8875 878.181 93.8738 877.793 93.4256C877.277 92.9777 873.152 91.3027 864.259 87.9541C854.334 84.271 846.734 83.1649 831.279 83.1983C811.059 83.1298 802.435 85.2815 780.564 95.6568C775.804 97.9123 757.808 113.668 755.369 117.602C743.178 137.723 741.132 144.351 741.171 162.425C741.193 172.753 741.849 178.252 743.533 182.627C747.161 192.722 754.27 204.719 760.595 211.553C766.792 218.275 781.239 228.796 787.555 231.365C808.307 239.515 810.884 239.958 831.104 240.027C845.785 240.107 850.55 239.648 856.856 237.838C866.381 235.123 883.493 227.452 884.905 225.316C885.418 224.417 886.575 223.741 887.219 223.74C888.636 223.737 897.506 216.084 903.545 209.784C907.4 205.734 915.355 192.246 918.301 184.718C920.862 177.977 922.105 157.206 920.538 147.33ZM907.606 182.159C899.797 203.618 881.544 219.935 856.32 228.073C848.856 230.558 810.993 230.977 808.284 228.738C807.509 227.954 805.834 227.284 804.546 227.287C802.356 227.291 788.692 221.371 785.854 219.02C784.822 218.348 781.856 216.334 779.147 214.432C776.439 212.641 772.568 209.282 770.502 206.929C768.308 204.576 765.984 201.999 765.338 201.215C762.886 198.75 755.774 185.407 753.829 179.237C751.107 171.16 751.066 152.188 753.753 144.211C757.208 134.1 758.363 131.965 764.526 123.644C774.543 110.264 789.461 100.352 807.351 95.1498C818.806 91.8694 841.213 91.3718 852.167 94.2669C878.969 101.281 898.968 117.965 907.645 140.623C911.013 149.709 911.063 172.61 907.606 182.159Z" fill="#D41E1E"/>
<path d="M902.389 151.86C899.656 138.619 897.846 135.368 895.147 137.843C892.061 140.544 890.257 139.762 887.67 134.716C885.083 129.67 869.212 115.335 863.411 112.765C860.317 111.425 859.666 108.171 862.499 108.165C863.143 108.163 863.657 107.489 863.655 106.815C863.652 105.243 856.434 102.565 846.899 100.34C835.303 97.7833 806.203 100.653 801.447 104.817C800.29 105.942 800.549 106.615 802.484 107.846C805.063 109.524 805.063 109.524 801.848 111.664C800.048 112.903 797.989 113.917 797.088 113.919C792.967 113.928 770.864 136.428 774.985 136.419C775.629 136.418 776.399 135.181 776.911 133.609C777.294 132.036 778.194 131.136 778.838 131.472C779.483 131.807 779.997 131.357 779.995 130.571C779.988 126.979 800.947 111.666 805.712 111.655C806.484 111.654 808.29 112.66 809.838 113.779C811.902 115.459 813.448 115.792 816.538 115.224C823.489 113.862 843.452 114.268 847.834 115.942C851.701 117.281 852.216 117.28 854.786 114.693C857.485 111.992 857.871 111.992 861.481 113.555C869.731 117.13 885.602 131.016 885.61 134.72C885.611 135.506 886.128 136.179 886.772 136.177C889.09 136.172 889.618 142.009 887.433 144.146C885.634 145.834 885.254 148.978 885.155 162.674C885.052 174.574 885.449 179.625 886.61 180.633C888.546 182.2 888.813 186.69 887.139 186.694C886.495 186.695 885.596 187.932 885.213 189.504C884.191 193.211 867.609 207.729 863.361 208.748C861.559 209.089 860.015 209.878 860.016 210.44C860.019 211.899 854.867 211.686 853.061 210.006C850.48 207.878 814.293 208.518 811.335 210.769C809.021 212.571 802.066 212.249 802.062 210.34C802.061 209.779 801.287 209.332 800.385 209.334C796.264 209.343 779.878 195.346 776.515 188.842C774.834 185.478 775.985 181.995 779.074 181.09C780.233 180.751 780.102 179.629 778.679 176.713C776.738 172.676 776.057 155.501 777.717 149.211C778.356 146.515 777.966 145.169 776.031 143.377C774.74 142.033 773.577 140.239 773.575 139.229C773.573 138.219 772.928 137.771 772.156 138.109C771.384 138.56 769.966 138.002 768.933 136.881C767.126 134.865 767.126 134.865 765.199 137.002C764.042 138.239 762.89 141.16 762.379 143.407C761.998 145.765 761.101 148.012 760.587 148.35C758.914 149.14 759.229 175.408 760.776 176.303C761.55 176.638 762.068 177.871 762.07 178.882C762.075 181.464 766.344 190.323 767.632 190.32C768.276 190.319 769.562 189.53 770.72 188.63C772.262 187.279 773.035 187.165 774.453 188.173C775.485 188.844 776.261 190.077 776.262 190.751C776.264 191.873 777.684 193.442 785.428 201.171C789.429 204.979 795.62 209.232 800.776 211.241C806.318 213.362 807.094 214.932 804.009 217.633C802.21 219.096 802.339 219.433 804.531 220.551C805.949 221.109 808.139 221.666 809.427 221.663C810.844 221.66 812.519 222.217 813.422 223.001C815.487 224.793 844.077 224.731 849.483 222.923C851.799 222.132 855.403 221.002 857.462 220.324C861.58 218.968 862.604 216.271 859.383 215.268C856.289 214.152 857.06 213.14 863.493 210.32C870.055 207.499 885.739 194.331 885.733 191.636C885.731 190.738 886.373 190.063 887.017 190.062C887.79 190.06 888.304 189.386 888.302 188.487C888.3 187.702 889.07 186.353 890.099 185.677C891.384 184.664 892.028 184.775 892.675 186.121C893.064 187.018 894.224 187.801 895.126 187.799C900.149 187.788 904.991 163.979 902.389 151.86Z" fill="#D41E1E"/>
<path d="M873.277 148.555C866.545 132.404 847.59 121.78 827.889 123.17C816.299 123.869 808.322 127.254 799.838 134.569C789.94 143.347 787.248 149.078 787.147 161.764C787.166 170.745 787.557 172.652 790.917 178.258C795.183 185.658 802.281 192.266 809.371 195.282C812.078 196.511 814.657 198.077 815.173 198.637C815.69 199.309 822.388 199.744 830.63 199.726C844.282 199.696 845.569 199.469 851.615 196.425C860.749 191.915 866.79 186.401 871.025 179.095C875.644 171.114 876.643 156.743 873.277 148.555ZM855.169 172.169C851.06 177.679 843.087 183.309 838.581 184.105C832.402 185.128 819.65 184.146 819.002 182.575C818.743 181.79 817.969 181.23 817.196 181.232C816.552 181.233 814.36 179.891 812.425 178.211C800.295 167.461 802.449 150.954 816.983 142.166C821.227 139.462 823.158 139.121 832.044 139.102C839.128 139.087 842.477 139.529 842.866 140.538C843.125 141.211 843.899 141.883 844.672 141.881C846.346 141.878 853.443 148.149 853.446 149.608C853.447 150.282 853.964 150.842 854.607 150.841C857.827 150.834 858.251 168.233 855.169 172.169Z" fill="#D41E1E"/>
<path d="M132.765 1048.17C132.583 1050.94 132.593 1055.34 132.787 1057.95C132.98 1060.47 133.07 1058.19 133.058 1052.82C133.046 1047.44 132.948 1045.32 132.765 1048.17Z" fill="#D41E1E"/>
<path d="M130.873 1038.25C130.591 1037.35 129.372 1035.24 128.154 1033.53C126.936 1031.82 125.905 1030.28 125.905 1030.03C125.903 1029.3 114.86 1019.88 113.926 1019.88C113.365 1019.88 112.337 1019.39 111.682 1018.91C109.997 1017.45 103.733 1015.02 101.771 1015.02C100.837 1015.02 99.622 1014.62 99.0605 1014.13C98.4989 1013.64 96.6302 1013.4 94.9491 1013.57C92.0538 1013.82 92.3344 1013.98 97.3808 1014.95C100.465 1015.51 103.456 1016.32 103.923 1016.64C104.485 1016.97 105.98 1017.45 107.476 1017.78C108.877 1018.02 110 1018.67 110.001 1019.07C110.002 1019.56 110.563 1019.89 111.217 1019.89C112.805 1019.88 123.098 1027.92 123.1 1029.22C123.102 1029.79 123.757 1030.44 124.505 1030.77C125.253 1031.01 125.908 1031.74 125.91 1032.47C125.911 1033.13 126.38 1033.69 126.847 1033.69C127.407 1033.69 127.782 1034.1 127.783 1034.59C127.784 1035.08 128.348 1036.62 129.098 1038C129.848 1039.47 130.693 1041.34 130.882 1042.23C131.258 1043.46 131.351 1043.37 131.348 1041.83C131.346 1040.69 131.062 1039.06 130.873 1038.25Z" fill="#D41E1E"/>
<path d="M130.93 1064.22C130.652 1065.12 130.001 1066.34 129.535 1066.91C128.976 1067.48 128.79 1068.13 129.165 1068.46C130.101 1069.27 130.752 1068.29 131.026 1065.36C131.21 1063.81 131.115 1063.32 130.93 1064.22Z" fill="#D41E1E"/>
<path d="M130.148 1048.18C129.774 1047.86 129.116 1045.9 128.644 1043.87C126.474 1033.86 118.141 1025.08 105.892 1019.57C100.375 1017.14 99.721 1017.06 88.5112 1017.08C75.7133 1017.11 72.7256 1017.85 64.2354 1022.76C58.5443 1026.11 55.7473 1028.64 52.4882 1033.45C47.9257 1040.3 46.5343 1044.86 46.5519 1053C46.5838 1067.74 54.3614 1078.88 69.5095 1085.69C76.0551 1088.69 76.1485 1088.69 87.732 1088.66C99.1288 1088.72 99.5957 1088.64 105.475 1086.02C113.595 1082.42 114.808 1081.76 117.511 1078.99C118.815 1077.6 120.68 1075.97 121.52 1075.32C123.757 1073.44 127.758 1066.1 128.87 1061.62C130.26 1056.41 130.897 1048.91 130.148 1048.18ZM123.174 1062.93C119.457 1071.9 113.491 1077.78 103.878 1081.87C98.1851 1084.32 96.7844 1084.57 88.7507 1084.59C78.5687 1084.69 72.9608 1083.32 66.6928 1079.1C61.4539 1075.61 56.8674 1071.38 56.8644 1070C56.863 1069.35 56.4883 1068.86 55.9278 1068.86C55.4607 1068.86 54.9928 1068.46 54.9917 1067.97C54.9907 1067.48 54.4268 1065.93 53.6765 1064.55C51.0494 1059.26 50.1958 1053.32 51.3066 1048.6C51.8616 1046.07 52.9757 1042.89 53.6264 1041.43C54.3708 1040.04 54.9279 1038.49 54.9269 1038C54.9258 1037.51 55.2986 1037.11 55.7657 1037.11C56.2327 1037.1 56.9785 1036.37 57.2566 1035.39C58.5568 1031.89 67.6038 1025.27 74.0447 1023.06C82.9128 1020.11 87.0222 1019.69 95.0592 1021.22C99.1711 1021.95 102.536 1022.84 102.537 1023.16C102.537 1023.49 103.566 1024.05 104.875 1024.3C108.052 1025.02 113.479 1028.92 117.973 1033.79C124.715 1041.11 126.984 1053.81 123.174 1062.93Z" fill="#D41E1E"/>
<path d="M120.238 1044.54C119.58 1042.59 118.831 1041.85 117.243 1041.86C114.254 1041.86 113.14 1045.12 113.066 1053.84C113.081 1060.84 113.176 1061.49 115.515 1063.44L117.949 1065.55L119.345 1063.27C121.02 1060.5 121.648 1048.28 120.238 1044.54Z" fill="#D41E1E"/>
<path d="M109.942 1034.95C108.446 1034.06 108.167 1034.87 109.664 1036.01C110.413 1036.58 110.973 1036.66 110.972 1036.25C110.971 1035.84 110.503 1035.19 109.942 1034.95Z" fill="#D41E1E"/>
<path d="M109.177 1070.13C108.151 1070.95 107.313 1071.84 107.313 1072.17C107.314 1072.5 108.154 1072.17 109.18 1071.43C110.206 1070.62 111.044 1069.72 111.044 1069.39C111.043 1069.07 110.203 1069.4 109.177 1070.13Z" fill="#D41E1E"/>
<path d="M107.536 1045.79C107.347 1044.97 106.692 1044.32 106.225 1044.32C105.758 1044.32 105.384 1043.92 105.382 1043.43C105.38 1042.37 101.169 1038.72 97.5212 1036.69C93.3125 1034.34 82.3839 1034.69 77.6254 1037.3C72.867 1039.92 71.2827 1041.63 69.0509 1046.28C66.7258 1051 66.638 1053.61 68.5165 1058.33C70.5823 1063.29 73.7654 1066.54 78.8146 1068.81C88.8195 1073.27 100.862 1069.82 106.635 1060.85C108.124 1058.41 108.665 1049.61 107.536 1045.79ZM97.9429 1058.92C94.0303 1063.89 87.3074 1065.21 82.0696 1062.13C74.1193 1057.42 73.5426 1049.93 80.6303 1044.54C91.1687 1036.54 106.142 1048.96 97.9429 1058.92Z" fill="#D41E1E"/>
<path d="M91.9064 1074.97C81.1641 1075.08 79.0161 1075.33 77.4307 1076.55C76.4049 1077.37 75.5665 1078.43 75.5676 1078.92C75.5741 1081.93 92.4841 1082.95 99.111 1080.41C102.471 1079.1 103.776 1077.72 101.721 1077.72C100.133 1077.72 100.69 1076.34 102.65 1075.6C103.957 1075.11 100.127 1074.87 91.9064 1074.97Z" fill="#D41E1E"/>
<path d="M98.6173 1025.29C89.2704 1022.7 74.0476 1024.36 74.709 1027.86C75.1814 1030.3 79.1074 1031.52 84.8043 1030.93C87.6062 1030.68 91.6231 1030.76 93.7725 1031.16C98.1648 1032.05 101.992 1030.73 102.827 1028.13C103.198 1026.91 102.449 1026.34 98.6173 1025.29Z" fill="#D41E1E"/>
<path d="M69.5817 1032.68C68.6482 1032.92 68.1822 1033.41 68.4629 1033.66C68.7437 1033.9 69.4904 1033.66 70.143 1033.08C70.982 1032.27 70.8884 1032.19 69.5817 1032.68Z" fill="#D41E1E"/>
<path d="M62.8807 1044.17C62.2249 1043.28 61.8486 1042.06 62.1273 1041.33C62.4983 1040.1 62.4049 1040.1 61.473 1041.16C60.6342 1042.06 60.2608 1042.14 59.8854 1041.33C59.2283 1039.87 57.9228 1040.93 56.3418 1044.19C54.4819 1048.02 54.5955 1057.38 56.4747 1062.43C57.8837 1066.01 59.6624 1067.79 59.6575 1065.51C59.6564 1065.03 60.3098 1064.78 61.0578 1065.1C61.9926 1065.43 62.4588 1065.02 62.4565 1063.96C62.4546 1063.07 62.92 1062.33 63.3871 1062.33C64.6015 1062.33 64.5957 1059.64 63.2854 1058.5C62.2559 1057.61 62.5178 1049.14 63.6339 1046.86C63.9127 1046.21 63.6298 1044.99 62.8807 1044.17Z" fill="#D41E1E"/>
<path d="M127.395 1070.82C126.649 1071.64 125.998 1072.86 125.999 1073.43C126 1074 125.348 1074.66 124.601 1074.9C123.854 1075.23 123.202 1075.8 123.203 1076.37C123.205 1077.18 120.687 1079.23 113.04 1085.02C111.827 1085.92 110.241 1086.66 109.493 1086.66C108.84 1086.66 108.28 1086.99 108.281 1087.39C108.282 1087.8 107.722 1088.29 107.162 1088.54C106.509 1088.7 106.976 1088.7 108.19 1088.53C109.404 1088.37 110.99 1087.63 111.736 1087.06C112.482 1086.41 113.415 1085.84 113.882 1085.84C115.096 1085.83 122.648 1079.14 125.909 1075.22C128.798 1071.72 130.283 1067.48 127.395 1070.82Z" fill="#D41E1E"/>
<path d="M103.894 1089.11C103.427 1089.12 102.493 1089.52 101.747 1089.93C100.628 1090.59 100.721 1090.75 102.496 1090.75C103.617 1090.74 104.55 1090.42 104.549 1089.93C104.548 1089.52 104.267 1089.11 103.894 1089.11Z" fill="#D41E1E"/>
<path d="M96.7976 1090.76C94.6492 1090.76 93.4356 1091.09 93.8103 1091.58C94.5598 1092.64 97.0818 1092.63 98.9477 1091.57C99.974 1091 99.413 1090.75 96.7976 1090.76Z" fill="#D41E1E"/>
<path d="M88.2073 1092.65C86.1523 1092.65 85.4054 1092.82 86.62 1092.98C87.7413 1093.14 89.4226 1093.14 90.3564 1092.97C91.1965 1092.73 90.2621 1092.56 88.2073 1092.65Z" fill="#D41E1E"/>
<path d="M81.3095 1013.52C79.1609 1013.44 77.1067 1013.85 76.8273 1014.26C76.5481 1014.75 75.4279 1015.08 74.4937 1015.08C69.4494 1015.09 55.6427 1023.59 50.7054 1029.87C47.7239 1033.46 44.5629 1040.39 44.1961 1043.56C44.0137 1045.6 44.0158 1046.58 44.2941 1045.68C45.4991 1041.36 47.9151 1035.49 48.4756 1035.49C48.8493 1035.49 49.4078 1034.59 49.6856 1033.45C50.3344 1031.09 62.7343 1019.99 64.696 1019.99C65.3499 1019.98 66.3762 1019.41 67.0286 1018.76C67.6811 1018.11 68.9877 1017.53 69.9218 1017.53C70.9493 1017.53 71.6959 1017.2 71.6951 1016.79C71.6942 1016.39 73.9348 1015.81 76.6431 1015.48C83.7406 1014.57 86.2604 1013.51 81.3095 1013.52Z" fill="#D41E1E"/>
<path d="M79.6095 1090.8C77.7413 1090.8 76.5275 1091.05 76.8085 1091.37C77.7443 1092.18 83.0687 1092.25 83.067 1091.44C83.0663 1091.11 81.571 1090.79 79.6095 1090.8Z" fill="#D41E1E"/>
</svg>
